<?xml version="1.0" standalone="no"?>
<!DOCTYPE svg PUBLIC "-//W3C//DTD SVG 20010904//EN"
 "http://www.w3.org/TR/2001/REC-SVG-20010904/DTD/svg10.dtd">
<svg version="1.0" xmlns="http://www.w3.org/2000/svg"
 width="886.000000pt" height="1280.000000pt" viewBox="0 0 886.000000 1280.000000"
 preserveAspectRatio="xMidYMid meet">
<metadata>
Created by potrace 1.15, written by Peter Selinger 2001-2017
</metadata>
<g transform="translate(0.000000,1280.000000) scale(0.100000,-0.100000)"
fill="#000000" stroke="none">
<path d="M1525 12791 c-43 -7 -272 -134 -419 -233 -277 -185 -488 -390 -616
-602 -53 -88 -116 -230 -141 -322 -11 -40 -39 -115 -63 -166 -130 -279 -216
-538 -262 -788 -22 -117 -25 -412 -6 -510 26 -131 92 -320 112 -320 8 0 9 -3
-25 185 -67 371 -70 446 -19 617 55 190 101 290 272 590 227 398 283 543 307
803 7 67 9 72 59 125 169 182 372 345 501 405 120 56 190 63 282 28 13 -5 14
-3 4 16 -19 35 -10 84 19 99 35 19 145 9 375 -32 210 -38 342 -50 395 -38 27
6 70 -1 190 -31 248 -62 420 -88 620 -93 l175 -4 -110 20 c-60 12 -209 43
-330 71 -553 125 -720 157 -934 179 -112 11 -322 12 -386 1z"/>
<path d="M4900 12643 c-87 -9 -208 -39 -399 -99 -295 -93 -341 -103 -546 -115
-240 -15 -377 -8 -485 24 -47 14 -87 24 -89 21 -12 -11 57 -76 106 -101 55
-27 64 -28 198 -28 128 0 159 4 370 49 127 26 268 50 315 53 68 4 92 10 121
29 88 59 243 93 432 94 133 0 237 -11 321 -36 27 -8 51 -12 53 -10 6 6 -71 54
-127 80 -54 25 -162 47 -210 44 -14 -1 -41 -3 -60 -5z"/>
<path d="M7105 12593 c-11 -2 -47 -10 -80 -18 -34 -8 -142 -16 -247 -20 -195
-5 -383 -22 -628 -56 -162 -22 -672 -108 -678 -114 -2 -2 13 -7 34 -12 61 -12
225 -8 399 12 177 19 297 16 363 -11 24 -9 60 -37 82 -62 30 -34 40 -40 40
-26 1 32 36 100 76 144 58 64 105 84 194 84 89 0 423 -28 600 -49 337 -41 613
-130 812 -261 143 -95 129 -79 -55 64 -222 172 -429 280 -609 316 -71 15 -253
20 -303 9z"/>
<path d="M1549 12553 c30 -42 73 -90 65 -73 -16 32 -68 100 -76 100 -5 0 0
-12 11 -27z"/>
<path d="M5345 12480 c10 -11 20 -20 23 -20 3 0 -3 9 -13 20 -10 11 -20 20
-23 20 -3 0 3 -9 13 -20z"/>
<path d="M3035 12259 c-246 -177 -298 -268 -420 -728 -54 -207 -96 -324 -127
-348 -12 -11 -17 -4 -32 45 -26 82 -106 244 -166 337 -51 78 -293 410 -313
430 -29 28 95 -179 235 -395 256 -394 332 -574 331 -790 -1 -75 -7 -126 -22
-180 -12 -44 -23 -116 -25 -175 -2 -55 -16 -173 -31 -263 -14 -89 -25 -170
-23 -180 2 -10 13 8 27 43 13 33 52 119 87 190 96 197 109 255 109 510 0 116
-4 298 -9 405 -11 262 12 412 88 575 18 39 41 94 50 122 32 104 115 221 265
376 52 53 92 99 90 101 -2 3 -54 -31 -114 -75z"/>
<path d="M6376 12218 c-8 -50 10 -168 25 -168 13 0 9 129 -5 175 l-12 40 -8
-47z"/>
<path d="M5845 12065 c17 -13 33 -24 37 -25 16 0 181 -199 300 -362 71 -97
136 -182 145 -190 14 -11 15 -10 9 12 -20 65 -118 252 -167 315 -84 110 -188
199 -296 254 -55 28 -65 27 -28 -4z"/>
<path d="M7145 12031 c-130 -28 -257 -101 -341 -195 -74 -82 -125 -159 -234
-356 -143 -259 -199 -340 -301 -442 -93 -93 -91 -98 16 -47 66 31 153 98 297
229 119 107 179 141 265 148 54 4 63 7 58 21 -49 127 -18 271 75 355 82 74
190 106 353 106 235 -1 435 -93 545 -253 88 -128 108 -178 167 -417 44 -176
54 -210 65 -210 9 0 27 95 36 201 22 250 -117 526 -351 695 -71 52 -220 121
-311 145 -88 22 -275 33 -339 20z"/>
<path d="M8365 11940 c64 -90 138 -239 170 -340 64 -204 88 -397 105 -845 6
-159 13 -296 15 -302 7 -22 -14 -343 -30 -456 -37 -255 -116 -402 -253 -469
-62 -31 -74 -33 -172 -34 -135 -1 -123 1 -166 -36 -34 -30 -45 -45 -104 -142
l-23 -38 46 35 c82 62 158 68 349 26 104 -23 186 -24 233 -5 47 20 90 83 110
163 9 38 27 106 41 153 50 178 56 322 22 633 -29 275 -29 492 0 605 24 94 68
181 119 241 l34 41 -15 54 c-23 78 -104 236 -181 351 -67 100 -213 285 -300
380 l-46 50 46 -65z"/>
<path d="M5671 11801 c138 -88 275 -302 385 -598 20 -57 39 -101 41 -99 13 13
-100 365 -145 451 -47 91 -155 201 -239 244 -78 39 -102 40 -42 2z"/>
<path d="M4494 11491 c-17 -4 -35 -11 -41 -14 -6 -4 -183 -45 -394 -93 -512
-114 -519 -121 -38 -33 482 87 671 86 899 -7 162 -65 469 -278 631 -435 29
-28 49 -42 45 -32 -15 39 -140 246 -191 315 l-53 73 86 6 c87 6 118 15 141 43
18 21 -1 51 -40 65 -48 17 -122 13 -218 -10 -65 -16 -105 -20 -166 -16 -80 5
-117 15 -350 97 -125 44 -240 59 -311 41z"/>
<path d="M2261 10995 c-142 -66 -279 -189 -375 -335 -112 -169 -205 -411 -302
-780 -42 -160 -58 -204 -121 -329 -40 -80 -69 -141 -65 -135 32 36 115 162
149 226 23 42 70 121 104 175 230 362 263 442 257 623 l-3 95 79 115 c132 193
206 276 316 352 35 24 23 22 -39 -7z"/>
<path d="M6302 10550 c-31 -41 -65 -48 -119 -21 -24 11 -45 21 -48 21 -2 0 10
-29 26 -64 58 -123 73 -229 73 -513 1 -140 5 -242 9 -230 16 44 46 246 57 392
11 149 28 438 25 442 -1 2 -11 -11 -23 -27z"/>
<path d="M2602 9994 c-19 -13 -62 -82 -62 -99 0 -4 15 10 34 29 19 20 43 36
56 36 63 0 138 -70 185 -173 27 -59 29 -87 7 -95 -7 -2 -43 26 -81 62 l-68 67
-32 -33 c-62 -63 -37 -110 99 -184 105 -57 118 -68 101 -88 -12 -14 -68 -35
-136 -51 l-30 -7 40 -15 c50 -18 114 -20 144 -4 92 49 52 298 -76 474 -63 86
-131 116 -181 81z"/>
<path d="M3728 9975 c-178 -30 -326 -105 -473 -240 l-40 -37 35 21 c316 193
665 214 1245 77 159 -38 235 -51 220 -38 -19 16 -216 103 -299 132 -256 89
-492 118 -688 85z"/>
<path d="M5655 9922 c-54 -25 -122 -103 -168 -193 -21 -41 -30 -63 -20 -49 42
58 131 144 174 165 93 48 157 45 241 -11 l53 -36 -40 42 c-86 90 -165 117
-240 82z"/>
<path d="M2434 9685 c8 -66 71 -289 110 -389 31 -80 31 -80 97 -113 128 -65
190 -145 204 -263 13 -110 -20 -228 -156 -560 -100 -245 -123 -317 -144 -450
-8 -52 -22 -124 -30 -160 -8 -36 -15 -89 -15 -117 l0 -53 -20 20 c-41 41 -117
52 -169 25 -16 -8 -44 -32 -62 -53 l-34 -39 -65 13 c-92 19 -214 82 -289 151
-86 78 -154 171 -290 400 -63 106 -142 228 -177 272 -57 72 -71 83 -151 122
-73 36 -104 59 -184 139 -59 58 -122 134 -162 196 -82 124 -208 382 -277 569
-31 84 -63 151 -78 168 -36 38 -108 74 -206 103 -105 31 -112 30 -50 -5 70
-41 162 -144 207 -233 20 -41 64 -155 97 -254 102 -300 172 -417 300 -500 79
-51 80 -53 155 -144 33 -40 121 -128 197 -197 191 -174 291 -291 346 -409 15
-31 42 -63 72 -87 27 -20 100 -81 162 -134 332 -284 472 -341 576 -233 20 21
49 42 65 45 15 4 31 14 35 22 6 9 12 -3 20 -38 28 -118 93 -235 272 -487 66
-92 141 -208 167 -259 26 -50 49 -91 50 -90 1 1 -5 29 -12 62 -62 263 -78 642
-50 1144 8 146 13 266 11 269 -8 8 -24 -34 -39 -103 -45 -204 -56 -556 -23
-751 21 -123 17 -178 -14 -194 -63 -34 -230 170 -297 362 -24 69 -25 81 -20
223 9 228 34 325 194 730 142 358 184 500 208 695 6 53 6 54 -13 37 -53 -48
-193 2 -298 107 -75 75 -119 159 -133 256 -9 64 -61 205 -83 225 -7 7 -9 -4
-4 -40z"/>
<path d="M4830 9696 c0 -2 20 -16 44 -30 25 -14 90 -60 146 -102 56 -41 104
-73 106 -71 3 3 -28 29 -68 59 -100 75 -228 156 -228 144z"/>
<path d="M5611 9676 c-47 -17 -105 -68 -126 -112 -9 -20 -35 -54 -56 -74 -23
-22 -39 -46 -39 -60 0 -37 68 -96 134 -115 104 -30 236 -9 253 41 2 6 -40 15
-101 22 -112 13 -206 37 -206 52 0 10 55 28 119 37 54 8 158 76 184 120 11 20
16 41 12 53 -14 44 -101 63 -174 36z"/>
<path d="M6066 9548 c-94 -162 -245 -395 -365 -565 l-105 -148 -20 45 -21 45
-2 -40 c-2 -22 -10 -136 -19 -253 -21 -271 -15 -484 16 -592 14 -52 25 -135
35 -270 7 -107 17 -224 21 -260 l7 -65 9 45 c5 25 10 142 11 260 2 179 -1 228
-17 294 l-18 79 23 51 c13 28 70 136 127 240 119 216 151 284 186 396 23 71
53 257 43 266 -2 2 -16 -40 -31 -94 -16 -53 -52 -162 -81 -242 -98 -271 -172
-387 -237 -373 -21 5 -22 11 -3 88 19 77 19 146 0 236 -9 40 -14 78 -12 84 3
5 40 60 84 121 107 149 215 321 301 479 68 125 146 285 138 285 -2 0 -34 -51
-70 -112z"/>
<path d="M3855 9329 c-197 -34 -390 -104 -577 -208 -135 -75 -162 -99 -70 -61
90 36 270 90 453 135 419 103 778 82 1038 -61 75 -42 64 -21 -23 41 -220 155
-507 209 -821 154z"/>
<path d="M7046 9259 c-63 -181 -201 -415 -353 -604 -99 -123 -288 -308 -408
-400 -49 -38 -94 -72 -100 -77 -16 -14 114 47 181 85 369 209 596 524 694 966
11 52 19 98 18 102 -2 5 -16 -28 -32 -72z"/>
<path d="M7765 9038 l-27 -112 22 -74 c41 -137 14 -242 -78 -306 -53 -36 -115
-62 -297 -123 -202 -68 -309 -120 -375 -183 -58 -57 -106 -149 -117 -225 -8
-59 -50 -121 -144 -211 -126 -119 -277 -203 -550 -304 -280 -104 -321 -119
-411 -158 -48 -20 -88 -40 -88 -43 0 -3 42 0 93 7 345 48 680 205 1142 532
116 83 131 97 148 140 28 70 101 174 162 230 71 65 155 120 345 226 85 48 186
109 223 137 59 43 68 54 62 72 -40 124 -65 294 -65 445 0 34 -4 62 -9 62 -5 0
-21 -50 -36 -112z"/>
<path d="M3640 8510 c-76 -8 -150 -22 -205 -38 -20 -6 52 -11 215 -15 294 -8
433 -28 629 -93 129 -42 276 -109 377 -173 27 -16 50 -26 52 -21 2 5 -6 26
-17 47 -63 124 -284 230 -581 278 -116 19 -368 27 -470 15z"/>
<path d="M1264 8255 c3 -11 19 -81 36 -155 88 -393 214 -789 396 -1246 93
-235 127 -339 243 -737 145 -495 234 -724 372 -954 27 -45 59 -103 70 -128 44
-100 25 -27 -61 229 -49 147 -92 284 -96 304 -4 20 -26 69 -50 109 -89 148
-183 413 -205 581 -21 155 4 184 85 100 73 -75 143 -187 192 -303 68 -163 75
-177 79 -173 3 2 -11 58 -29 124 -32 117 -37 125 -168 329 -229 355 -299 478
-374 653 -45 105 -95 267 -109 352 -4 25 -45 122 -90 215 -46 94 -129 291
-185 440 -55 148 -103 271 -107 275 -3 3 -3 -4 1 -15z"/>
<path d="M5002 7920 c-13 -272 -16 -497 -7 -488 8 8 43 206 50 288 4 47 2 99
-6 140 -7 36 -15 124 -18 195 l-6 130 -13 -265z"/>
<path d="M7152 7797 c-29 -94 -71 -219 -93 -277 -22 -58 -67 -193 -100 -300
-74 -240 -113 -334 -155 -380 -40 -42 -58 -36 -90 30 l-22 44 -5 -30 c-4 -16
-11 -56 -17 -89 -14 -83 -35 -147 -130 -399 -81 -216 -109 -318 -97 -350 10
-26 51 -19 106 19 59 41 61 41 61 15 0 -34 33 -170 41 -170 8 0 9 5 34 210 21
173 36 224 111 372 177 350 268 657 384 1292 17 92 30 172 28 177 -2 5 -27
-69 -56 -164z"/>
<path d="M3945 7499 c-60 -5 -185 -6 -276 -3 -139 5 -175 4 -225 -11 -112 -32
-180 -79 -322 -222 -74 -74 -131 -137 -129 -140 12 -12 171 59 263 117 120 76
227 130 319 161 77 26 73 26 555 18 271 -5 271 -5 383 -136 144 -169 193 -200
91 -57 -137 190 -162 217 -225 241 -102 39 -222 48 -434 32z"/>
<path d="M4965 7278 c-21 -108 -32 -288 -18 -288 8 0 14 46 39 318 4 34 4 62
1 62 -2 0 -12 -42 -22 -92z"/>
<path d="M5519 7347 c-36 -12 -91 -38 -123 -57 -73 -44 -212 -189 -291 -303
-38 -54 -67 -86 -78 -87 -10 0 -32 13 -48 29 l-29 29 -6 -26 c-44 -203 -92
-332 -155 -415 -30 -39 -29 -38 25 13 32 30 98 109 149 175 317 418 429 536
597 629 74 41 57 46 -41 13z"/>
<path d="M2502 7187 c-133 -344 -197 -742 -137 -857 31 -59 80 -74 150 -44 75
31 84 41 72 79 -7 25 -7 52 0 92 8 43 8 53 -1 38 -6 -11 -32 -42 -58 -68 -62
-64 -93 -63 -126 5 -59 119 -32 341 83 677 25 74 51 143 56 153 6 11 8 22 6
25 -3 2 -23 -43 -45 -100z"/>
<path d="M5450 7186 c0 -3 9 -20 20 -38 35 -60 53 -155 53 -278 0 -192 -54
-389 -133 -488 -67 -86 -137 -93 -211 -22 l-41 39 35 33 c36 35 57 99 57 176
0 52 -34 209 -57 261 l-19 45 4 -90 c4 -79 -1 -109 -37 -260 -52 -216 -52
-262 -2 -301 22 -17 147 -16 207 2 125 37 210 205 233 460 15 175 -13 399 -56
448 -14 15 -53 25 -53 13z"/>
<path d="M6713 7090 c-18 -96 -26 -170 -20 -170 8 0 39 184 35 211 -2 15 -8
-1 -15 -41z"/>
<path d="M2741 6853 c-28 -32 -51 -67 -51 -78 0 -11 -3 -31 -6 -45 -3 -14 17
13 46 60 88 144 89 151 11 63z"/>
<path d="M2631 6599 c-12 -28 -20 -53 -18 -55 2 -3 14 19 26 47 12 29 20 54
17 56 -2 2 -13 -19 -25 -48z"/>
<path d="M3380 6621 c-47 -4 -81 -8 -76 -9 4 -1 130 -27 280 -56 149 -30 325
-71 391 -91 147 -44 335 -135 433 -209 59 -45 72 -52 67 -34 -29 97 -147 230
-253 286 -84 45 -189 80 -297 98 -100 17 -412 26 -545 15z"/>
<path d="M5562 6398 c-11 -24 -48 -104 -82 -178 -34 -74 -134 -306 -222 -515
-231 -549 -269 -637 -379 -867 -100 -209 -133 -291 -57 -143 22 44 100 193
173 330 271 511 397 780 488 1040 50 144 111 364 104 372 -3 2 -14 -15 -25
-39z"/>
<path d="M3071 6327 c-1 -9 17 -129 38 -265 101 -633 117 -776 131 -1182 12
-383 65 -1048 130 -1638 10 -97 24 -296 31 -442 11 -262 16 -1078 9 -1465 -2
-125 1 -209 7 -225 11 -25 11 -25 17 10 3 19 10 96 16 170 5 74 17 212 26 305
12 118 17 276 18 520 1 368 -9 506 -54 752 -15 77 -20 151 -20 264 0 185 -8
271 -60 644 -64 456 -70 609 -34 850 14 94 13 109 -5 225 -12 69 -32 229 -45
355 -52 477 -78 643 -132 852 -20 76 -44 172 -54 213 -10 41 -19 67 -19 57z"/>
<path d="M4692 6223 c-89 -194 -132 -320 -251 -744 -83 -297 -87 -313 -79
-377 12 -113 9 -408 -7 -582 -8 -91 -31 -282 -50 -425 -63 -476 -76 -598 -82
-810 -5 -207 -3 -245 33 -575 14 -133 15 -177 5 -305 -14 -181 -22 -234 -100
-626 -69 -352 -91 -505 -90 -627 l1 -87 13 90 c17 124 38 230 100 515 104 479
126 634 124 895 -3 497 31 1479 67 1920 55 693 170 1290 333 1734 17 47 29 86
27 88 -1 2 -21 -36 -44 -84z"/>
<path d="M2428 5507 c3 -491 17 -808 43 -977 11 -74 29 -198 39 -275 25 -184
42 -290 95 -585 98 -547 119 -713 140 -1072 15 -274 41 -444 86 -563 34 -90
42 -71 36 83 -4 98 -11 157 -26 207 -57 190 -90 442 -121 930 -22 347 -49 598
-80 734 -10 47 -30 136 -44 196 -44 192 -74 447 -96 815 -27 439 -63 874 -74
887 0 1 0 -170 2 -380z"/>
<path d="M6600 5649 c0 -29 -39 -287 -55 -364 -23 -111 -76 -263 -116 -332
-19 -32 -63 -87 -99 -123 -62 -62 -140 -152 -140 -163 0 -3 26 10 57 29 73 44
122 46 153 7 19 -24 21 -36 16 -88 -24 -237 -144 -524 -418 -1000 -152 -265
-214 -380 -183 -340 8 11 33 44 56 73 42 54 69 67 69 32 0 -11 -11 -73 -25
-137 -53 -245 -65 -320 -64 -408 1 -133 19 -165 34 -60 28 197 98 484 165 680
46 134 156 366 220 464 93 143 211 584 270 1006 36 259 78 721 66 732 -3 4 -6
0 -6 -8z"/>
<path d="M4005 5394 c-204 -80 -378 -134 -451 -141 -35 -3 -64 -9 -64 -14 0
-13 64 -48 110 -58 51 -11 128 0 196 29 40 17 305 183 359 224 37 28 -6 17
-150 -40z"/>
<path d="M4512 4770 c-39 -653 -66 -991 -112 -1380 -11 -96 -20 -182 -19 -190
2 -56 45 141 94 440 15 85 30 174 35 196 33 145 43 315 41 664 -1 195 -5 423
-9 505 l-7 150 -23 -385z"/>
<path d="M6061 5064 c0 -11 3 -14 6 -6 3 7 2 16 -1 19 -3 4 -6 -2 -5 -13z"/>
<path d="M6021 4882 c-18 -86 -92 -429 -166 -762 -73 -333 -136 -630 -140
-660 -20 -157 -56 -270 -235 -735 -101 -261 -126 -396 -116 -625 6 -138 21
-278 25 -225 24 383 32 458 63 585 20 84 43 140 78 190 19 26 120 428 240 960
109 481 298 1416 288 1426 -3 2 -19 -67 -37 -154z"/>
<path d="M4030 4655 c-47 -7 -152 -26 -235 -43 -82 -17 -172 -34 -200 -39 -48
-9 -46 -10 60 -18 61 -4 199 -5 308 -2 176 5 200 8 213 24 19 25 28 63 18 73
-17 16 -80 18 -164 5z"/>
<path d="M3690 4220 c-19 -4 -26 -8 -15 -9 12 0 88 -17 170 -36 188 -45 298
-54 343 -31 18 9 32 21 32 25 0 13 -73 38 -144 51 -67 11 -332 11 -386 0z"/>
<path d="M3695 3779 c-70 -10 -170 -57 -205 -95 -20 -22 -21 -26 -7 -21 10 4
64 16 120 28 126 26 276 22 377 -10 56 -17 73 -29 113 -76 69 -79 99 -69 61
20 -43 104 -98 139 -242 154 -115 12 -132 12 -217 0z"/>
<path d="M5791 2500 c-18 -69 -46 -165 -63 -213 -48 -144 -59 -229 -56 -442 2
-104 3 -273 2 -375 -1 -212 -11 -270 -93 -535 -27 -88 -48 -161 -47 -163 7 -7
70 140 106 248 76 225 107 449 116 835 5 195 11 281 29 390 57 340 60 455 6
255z"/>
<path d="M4630 2485 c0 -8 41 -78 72 -122 99 -145 357 -326 507 -358 73 -15
99 -13 71 6 -8 5 -62 38 -120 74 -58 35 -199 140 -313 234 -197 162 -217 178
-217 166z"/>
<path d="M3205 2060 c-104 -21 -275 -101 -275 -128 0 -5 60 2 133 15 186 33
287 73 274 108 -7 17 -62 19 -132 5z"/>
<path d="M3126 1732 l-129 -27 89 -22 c49 -12 110 -22 136 -22 41 -1 53 4 88
35 22 20 40 43 40 50 0 21 -75 16 -224 -14z"/>
<path d="M2901 1694 c0 -11 3 -14 6 -6 3 7 2 16 -1 19 -3 4 -6 -2 -5 -13z"/>
<path d="M4235 1605 c25 -279 34 -336 122 -785 38 -190 70 -331 71 -315 6 51
-18 312 -43 465 -33 200 -139 687 -152 700 -3 3 -2 -26 2 -65z"/>
<path d="M5160 1534 c-107 -39 -97 -38 -440 -10 -91 8 -166 13 -168 12 -6 -6
166 -69 241 -88 107 -28 269 -30 344 -4 49 16 133 89 133 116 0 13 -1 13 -110
-26z"/>
<path d="M5332 1375 c-24 -162 -28 -320 -11 -425 22 -140 97 -304 184 -405
l35 -40 -40 85 c-85 184 -129 410 -138 725 l-7 210 -23 -150z"/>
<path d="M2922 1383 c-7 -61 -37 -230 -66 -375 -60 -293 -72 -393 -60 -500 l8
-73 7 80 c8 83 20 122 110 340 53 128 53 131 54 235 0 76 -4 112 -15 130 -10
17 -16 65 -20 150 l-5 125 -13 -112z"/>
<path d="M5170 1193 c-8 -3 -60 -22 -115 -43 -142 -55 -212 -65 -284 -41 -57
20 -172 44 -178 38 -7 -8 91 -49 162 -67 159 -41 292 -14 410 84 30 24 32 37
5 29z"/>
<path d="M3818 1091 c-26 -11 -71 -35 -99 -56 -48 -34 -52 -35 -72 -20 -114
83 -169 98 -187 49 -13 -32 1 -90 38 -157 43 -79 128 -145 212 -162 34 -7 34
-6 -15 25 -66 42 -125 100 -125 122 0 28 53 54 138 68 42 6 116 18 165 26 48
8 91 14 97 14 13 0 -45 -157 -71 -193 -37 -50 -13 -40 49 20 89 88 123 174 92
234 -27 49 -135 64 -222 30z"/>
<path d="M3490 773 c-39 -14 -79 -74 -94 -138 -6 -27 -5 -26 19 12 32 52 94
84 181 91 35 2 62 7 60 10 -6 5 -125 32 -141 31 -5 0 -17 -3 -25 -6z"/>
<path d="M3090 709 c-67 -13 -147 -56 -177 -95 -29 -39 -40 -108 -26 -163 l9
-33 44 68 c94 146 198 219 281 197 29 -8 43 -7 56 2 15 11 15 13 -5 24 -24 13
-116 13 -182 0z"/>
<path d="M4032 697 c-75 -28 -142 -111 -141 -177 0 -18 6 -9 22 30 38 95 118
112 259 55 34 -14 63 -24 64 -22 2 2 -20 29 -49 60 -57 64 -94 77 -155 54z"/>
<path d="M3281 510 c-78 -17 -167 -50 -216 -81 -26 -16 -46 -31 -44 -33 2 -2
40 3 84 12 61 12 148 16 365 16 261 0 300 -2 465 -27 98 -15 197 -32 219 -37
64 -14 53 -5 -31 28 -101 38 -244 79 -363 104 -108 22 -406 33 -479 18z"/>
<path d="M5565 396 c-49 -75 -114 -80 -300 -21 -126 40 -157 43 -185 15 -27
-27 -29 -106 -2 -95 31 13 142 18 142 7 0 -34 -123 -92 -194 -92 -74 1 -142
57 -160 132 -6 26 -6 26 -83 21 -94 -6 -135 -15 -140 -30 -2 -6 30 -34 71 -62
41 -28 77 -55 81 -60 9 -15 -63 -31 -142 -31 -64 0 -190 18 -247 36 l-21 7 20
-23 c76 -85 272 -142 485 -141 329 1 584 110 671 286 34 69 36 102 4 51z"/>
<path d="M4288 255 c-104 -115 -218 -146 -514 -140 -215 4 -268 15 -593 119
-173 56 -245 69 -235 43 7 -18 365 -159 512 -201 483 -140 765 -83 863 174 11
29 19 54 17 55 -2 1 -24 -21 -50 -50z"/>
</g>
</svg>
