<?xml version="1.0" standalone="no"?>
<!DOCTYPE svg PUBLIC "-//W3C//DTD SVG 20010904//EN"
 "http://www.w3.org/TR/2001/REC-SVG-20010904/DTD/svg10.dtd">
<svg version="1.0" xmlns="http://www.w3.org/2000/svg"
 width="1250.000000pt" height="1280.000000pt" viewBox="0 0 1250.000000 1280.000000"
 preserveAspectRatio="xMidYMid meet">
<metadata>
Created by potrace 1.15, written by Peter Selinger 2001-2017
</metadata>
<g transform="translate(0.000000,1280.000000) scale(0.100000,-0.100000)"
fill="#000000" stroke="none">
<path d="M3479 12784 c-13 -12 -14 -25 -8 -57 23 -117 7 -254 -61 -520 -118
-471 -139 -918 -70 -1557 37 -350 39 -490 11 -735 -14 -114 -26 -314 -33 -543
-14 -421 -3 -692 37 -962 13 -91 38 -257 55 -370 53 -361 60 -736 15 -860 -19
-53 -29 -152 -50 -489 -17 -260 -40 -447 -71 -581 l-18 -75 -7 45 c-14 88 -9
425 11 650 33 379 27 565 -30 910 -28 175 -54 387 -90 735 -33 324 -42 399
-95 780 -51 377 -63 466 -80 630 -22 203 -71 591 -96 750 -16 101 -30 153 -65
235 -24 58 -73 208 -109 333 -35 126 -81 267 -101 315 -42 97 -99 194 -90 152
33 -159 32 -686 -4 -1095 -27 -321 -36 -704 -21 -915 34 -457 110 -863 213
-1130 70 -181 87 -246 103 -378 9 -70 40 -264 70 -432 182 -1024 234 -1473
237 -2075 2 -212 -1 -274 -15 -334 -9 -41 -20 -78 -25 -83 -9 -9 -22 118 -52
527 -46 600 -71 761 -180 1126 -50 166 -101 313 -138 400 -11 25 -43 139 -71
253 -147 591 -364 1101 -733 1716 -108 179 -206 330 -216 330 -5 0 -35 23 -66
50 -95 83 -107 70 -72 -83 14 -61 34 -173 45 -247 74 -504 72 -493 145 -667
15 -34 38 -118 52 -187 16 -79 47 -182 85 -283 83 -216 128 -341 189 -518 155
-449 204 -558 435 -964 114 -202 151 -309 219 -631 19 -91 53 -242 76 -335 83
-343 99 -434 107 -620 3 -83 3 -175 -1 -206 l-7 -55 -38 35 -38 36 -12 185
c-21 322 -56 561 -116 794 -62 241 -140 420 -265 611 -120 182 -219 267 -532
454 -76 45 -138 86 -138 90 0 5 -22 42 -48 82 -85 131 -208 240 -447 400 -218
146 -392 229 -477 229 -50 0 -138 38 -267 114 -140 83 -197 110 -254 120 l-39
7 19 -33 c21 -38 116 -135 220 -226 43 -37 113 -116 172 -195 155 -207 272
-314 671 -612 364 -273 443 -352 628 -629 92 -138 154 -219 224 -292 147 -153
184 -220 338 -599 54 -132 133 -323 175 -425 90 -216 115 -290 115 -333 -1
-28 -3 -26 -20 23 -11 30 -46 100 -77 155 -100 175 -124 224 -199 392 -88 199
-116 243 -202 325 -181 170 -613 389 -887 448 -117 26 -290 41 -624 55 -196 8
-394 20 -441 25 -87 11 -219 35 -252 45 -10 4 -18 1 -18 -5 0 -23 58 -66 126
-95 38 -16 109 -53 158 -82 141 -83 271 -134 825 -323 795 -270 929 -338 1187
-602 164 -168 259 -308 280 -415 6 -29 4 -31 -15 -26 -12 3 -59 40 -104 81
-130 119 -247 162 -499 184 -168 14 -536 -3 -603 -29 -131 -50 -184 -64 -276
-74 -70 -7 -116 -17 -148 -33 -76 -39 -244 -76 -398 -88 -214 -17 -431 8 -567
65 -34 15 -38 15 -32 1 19 -51 111 -126 219 -180 204 -103 571 -175 827 -161
110 6 306 51 535 122 165 51 247 71 384 94 149 25 205 26 278 5 35 -10 72 -14
99 -10 l43 5 76 -82 c137 -146 150 -183 164 -472 l8 -180 -37 -75 c-41 -83
-154 -365 -190 -475 -13 -38 -35 -84 -51 -102 -43 -50 -75 -109 -128 -241 -54
-135 -98 -202 -222 -337 -84 -92 -133 -155 -256 -330 -68 -96 -128 -159 -261
-273 -61 -52 -112 -130 -112 -170 0 -24 93 -113 147 -141 l41 -21 32 36 c17
20 79 108 138 197 70 107 129 184 174 227 56 55 73 79 103 150 27 64 60 115
130 203 102 128 131 180 165 297 25 87 59 157 124 257 57 88 78 138 195 453
131 352 180 445 355 680 206 275 225 299 278 340 101 81 259 153 427 197 82
21 131 26 341 33 245 8 245 8 395 50 193 53 235 58 630 70 405 12 656 44 941
120 244 65 475 167 636 282 72 52 88 68 98 102 13 42 42 93 100 171 52 69 71
110 73 155 3 80 -31 65 -112 -51 -115 -162 -182 -211 -343 -249 -69 -16 -409
-54 -763 -86 -44 -4 -271 -8 -505 -8 -395 -1 -434 -3 -545 -24 -329 -61 -609
-169 -827 -320 -54 -37 -152 -104 -218 -150 -101 -70 -262 -162 -284 -162 -3
0 -6 18 -6 40 0 30 7 48 31 75 41 46 200 166 318 239 90 55 619 332 711 371
143 61 752 411 951 546 34 23 103 60 153 83 128 58 189 95 281 170 44 36 134
106 200 157 160 123 213 175 297 293 39 54 115 144 168 200 119 125 143 152
313 351 75 88 156 183 180 210 24 28 50 68 57 90 7 22 34 90 61 151 49 115 83
242 77 289 -3 25 -15 15 -163 -136 -88 -90 -175 -184 -193 -209 -24 -34 -50
-54 -101 -79 -38 -18 -100 -57 -138 -85 -37 -29 -113 -86 -168 -128 -55 -41
-174 -121 -265 -178 -328 -203 -394 -247 -583 -389 -242 -182 -277 -211 -472
-401 -196 -190 -243 -231 -565 -497 -140 -115 -322 -272 -405 -348 -202 -186
-720 -617 -772 -644 -23 -11 -49 -21 -58 -21 -14 0 -14 3 2 31 32 53 108 123
218 199 148 102 197 149 244 233 22 39 55 88 73 108 18 20 87 99 154 175 186
214 331 344 476 427 26 15 57 42 70 60 12 17 66 75 118 127 70 70 106 115 135
170 25 46 70 106 121 160 44 47 99 118 122 158 23 39 60 102 81 140 21 37 68
102 104 145 36 43 88 115 115 160 28 45 76 111 106 147 32 37 67 93 82 130 57
138 74 168 152 272 45 60 110 165 148 239 56 108 82 146 149 217 44 48 96 109
114 136 49 71 124 235 166 366 20 63 57 176 82 250 l46 134 -1 216 c-2 218 5
312 31 453 16 84 10 136 -21 170 -15 17 -17 17 -29 -17 -6 -20 -17 -96 -22
-169 -12 -143 -27 -212 -68 -316 -44 -112 -178 -372 -240 -466 -33 -49 -77
-121 -98 -160 -68 -125 -93 -159 -143 -197 -62 -46 -127 -144 -252 -378 -122
-230 -150 -271 -342 -495 -90 -105 -179 -213 -199 -240 -62 -86 -184 -294
-293 -504 -199 -378 -404 -677 -735 -1069 -82 -96 -112 -150 -162 -285 -40
-110 -68 -154 -152 -239 -40 -40 -101 -106 -136 -145 -56 -66 -103 -103 -130
-103 -6 0 15 33 45 72 30 41 105 174 171 303 170 337 401 710 608 985 148 197
181 255 240 420 20 58 70 176 111 263 76 162 92 209 119 357 11 58 26 101 47
135 59 94 86 150 102 210 70 266 160 664 186 830 40 250 59 323 108 421 82
163 120 319 192 782 36 233 37 250 5 388 -13 60 -29 172 -36 249 -7 92 -21
179 -41 255 -23 85 -30 136 -30 194 1 62 -4 91 -23 137 -20 47 -25 75 -25 148
0 94 -18 164 -46 175 -8 3 -15 4 -16 3 0 -1 -4 -162 -8 -357 -8 -413 -4 -392
-130 -774 -82 -251 -93 -292 -190 -727 -33 -147 -83 -349 -111 -450 -28 -101
-68 -247 -90 -324 -21 -77 -50 -203 -65 -280 -14 -77 -43 -232 -65 -345 -21
-113 -47 -259 -58 -326 -22 -129 -52 -237 -102 -355 -17 -41 -61 -162 -99
-269 -37 -107 -111 -312 -163 -455 -53 -143 -116 -321 -142 -395 -51 -149 -89
-230 -157 -335 -68 -104 -80 -133 -148 -340 -65 -198 -119 -329 -127 -308 -16
44 111 525 217 818 34 94 90 249 124 345 35 96 86 228 115 293 63 142 72 167
162 456 145 468 184 671 209 1111 24 429 41 640 59 740 67 370 73 417 91 735
13 225 20 270 80 535 69 302 74 339 67 525 -10 240 -37 437 -93 660 -14 55
-36 153 -49 218 -13 65 -32 132 -42 149 -18 30 -69 76 -76 67 -2 -2 2 -47 9
-99 21 -150 28 -428 15 -585 -22 -267 -57 -417 -146 -625 -118 -275 -169 -622
-195 -1320 -37 -1029 -43 -1098 -146 -1740 -105 -654 -132 -783 -312 -1455
-39 -143 -80 -306 -93 -363 -13 -56 -25 -100 -27 -98 -4 4 76 630 114 896 55
380 120 704 185 929 30 100 32 120 40 349 6 158 16 287 29 368 26 163 26 400
-1 719 -26 310 -36 765 -20 902 7 56 30 175 51 265 57 233 63 298 57 558 -6
230 -19 365 -62 633 -13 84 -33 224 -45 312 -11 88 -38 237 -60 330 -65 285
-75 395 -44 503 18 62 14 103 -30 270 -14 52 -28 118 -32 148 -7 56 -18 66
-45 38z"/>
<path d="M6695 4681 c-152 -25 -326 -94 -551 -219 -77 -43 -211 -118 -299
-166 -447 -248 -752 -452 -1030 -691 -100 -85 -257 -236 -252 -241 9 -10 92
45 167 111 84 73 294 206 484 306 194 102 457 208 811 329 246 84 635 219 780
271 116 42 124 43 240 44 66 0 189 -4 274 -9 l153 -9 -20 39 c-49 95 -187 184
-342 219 -84 19 -334 29 -415 16z"/>
<path d="M5427 4618 c-88 -11 -168 -59 -267 -158 -47 -47 -97 -108 -112 -136
-15 -28 -45 -123 -67 -212 -23 -93 -51 -183 -67 -213 -18 -32 -87 -109 -187
-208 -175 -173 -222 -229 -267 -317 -37 -73 -37 -81 -1 -55 16 11 47 56 70
100 49 94 90 136 198 203 142 87 237 181 335 329 37 55 102 130 189 215 116
113 146 137 220 173 83 41 93 44 215 53 171 12 277 56 228 93 -34 26 -168 92
-222 110 -68 22 -190 32 -265 23z"/>
<path d="M8069 4541 c-48 -11 -165 -51 -270 -94 -289 -119 -328 -130 -516
-147 -65 -5 -172 -15 -238 -21 -141 -12 -212 -27 -355 -74 -58 -19 -265 -80
-460 -135 -581 -165 -671 -199 -1018 -380 -245 -128 -411 -227 -454 -272 -35
-36 -49 -68 -30 -68 16 0 187 72 472 200 537 241 554 246 1169 376 532 113
535 113 816 124 261 10 283 12 455 54 58 14 160 34 228 45 97 15 131 25 162
46 67 46 292 105 403 105 82 0 146 -18 287 -78 129 -55 180 -70 180 -52 0 101
-333 345 -519 380 -80 15 -215 11 -312 -9z"/>
<path d="M9665 4214 c-168 -17 -263 -29 -415 -54 -226 -38 -313 -47 -550 -60
-107 -6 -242 -17 -300 -25 -227 -31 -375 -45 -605 -55 -362 -16 -571 -46
-1125 -160 -162 -34 -395 -81 -517 -105 -122 -25 -270 -56 -330 -71 -127 -30
-549 -162 -643 -200 -76 -31 -170 -85 -170 -98 0 -17 145 3 230 32 79 27 180
46 180 34 0 -2 -8 -11 -17 -19 -16 -12 8 -13 177 -9 187 4 251 13 306 44 12 7
22 4 34 -8 22 -22 73 -18 270 20 90 18 225 35 355 45 116 8 246 20 290 25 263
32 539 52 730 53 206 0 212 0 335 -32 151 -40 182 -39 500 14 430 71 939 112
1265 101 326 -10 439 -28 966 -152 433 -101 511 -114 779 -124 288 -11 303
-14 716 -129 139 -39 340 -78 350 -68 6 6 -101 57 -231 109 -290 116 -704 226
-1175 313 -159 29 -215 44 -300 80 -222 93 -419 129 -710 129 -173 0 -216 -4
-380 -32 -230 -39 -452 -52 -920 -52 -507 1 -1319 -19 -1523 -36 -218 -18
-350 -37 -812 -120 -399 -71 -667 -110 -825 -118 l-105 -6 75 20 c41 11 167
40 280 64 309 68 366 82 478 120 170 60 205 65 667 106 596 53 876 64 1845 75
482 6 549 9 820 36 370 37 596 40 724 10 47 -11 145 -47 218 -80 158 -70 192
-81 269 -90 l59 -7 0 26 c0 36 -29 71 -92 111 -29 18 -89 61 -133 94 -122 92
-143 103 -266 134 -63 16 -149 43 -192 61 -43 17 -104 36 -135 41 -61 10 -381
20 -447 13z"/>
<path d="M8870 3565 c-421 -55 -631 -68 -1325 -85 -496 -12 -606 -19 -1070
-65 -580 -58 -722 -63 -1063 -39 -86 6 -172 -1 -172 -15 0 -13 292 -59 530
-83 128 -13 665 -16 1675 -10 410 2 541 -1 802 -18 322 -21 582 -28 833 -21
123 4 160 1 245 -18 55 -12 152 -26 215 -31 94 -7 130 -14 195 -41 78 -32 86
-33 275 -40 107 -4 254 -16 325 -27 193 -30 304 -37 340 -21 22 10 90 14 250
14 184 1 238 5 332 23 243 48 354 63 493 69 130 5 166 2 351 -26 113 -18 227
-31 255 -29 l49 3 -180 72 c-312 125 -407 147 -605 143 -224 -5 -283 -2 -385
20 -284 61 -407 83 -695 124 -640 92 -881 116 -1235 121 -220 4 -272 1 -435
-20z"/>
<path d="M5005 3341 c-3 -6 2 -14 12 -17 10 -3 63 -23 118 -44 273 -104 515
-155 850 -180 83 -7 251 -21 375 -32 162 -15 321 -22 566 -24 298 -3 352 -6
431 -23 50 -11 184 -30 299 -41 374 -36 656 -93 894 -180 63 -23 214 -89 335
-147 453 -216 510 -235 1159 -399 231 -58 515 -134 630 -169 437 -131 640
-182 652 -163 16 26 -52 69 -186 116 -47 16 -155 66 -240 110 -154 80 -360
167 -1124 473 -468 188 -610 241 -806 302 -478 149 -728 184 -1540 217 -808
32 -1175 42 -1343 37 -193 -6 -400 4 -497 24 -30 6 -73 23 -95 38 -53 36 -93
47 -287 75 -89 14 -170 27 -179 31 -10 3 -20 2 -24 -4z"/>
<path d="M4779 3297 c7 -10 23 -17 36 -17 12 0 75 -25 139 -55 64 -30 183 -77
264 -104 264 -89 449 -131 1052 -236 820 -144 1438 -313 1793 -491 129 -65
229 -134 472 -323 115 -90 270 -202 343 -250 74 -47 243 -159 377 -247 266
-176 525 -337 531 -331 2 2 -18 37 -45 78 -52 80 -113 142 -259 263 -51 43
-172 166 -269 274 -288 321 -391 415 -656 593 -343 231 -704 353 -1339 454
-226 36 -714 97 -993 125 -542 54 -645 73 -1079 191 -160 44 -311 83 -336 86
-41 6 -44 5 -31 -10z"/>
<path d="M4560 3231 c0 -6 17 -25 37 -43 20 -18 109 -101 197 -184 89 -83 199
-184 246 -224 102 -88 221 -210 378 -385 64 -71 189 -209 277 -305 189 -206
233 -258 345 -405 49 -63 201 -228 358 -389 206 -210 288 -300 330 -365 30
-47 70 -108 88 -136 18 -27 77 -99 130 -160 171 -194 259 -315 372 -515 32
-57 74 -102 105 -113 9 -4 17 -5 17 -3 0 21 -51 140 -131 306 -65 136 -120
269 -162 395 -80 234 -166 471 -200 548 -15 33 -51 83 -84 118 -32 34 -78 94
-103 135 -57 93 -428 542 -536 649 -96 95 -247 215 -394 312 -145 97 -640 404
-785 488 -66 38 -163 104 -216 147 -54 43 -119 89 -146 102 -57 29 -123 43
-123 27z"/>
<path d="M4790 3204 c0 -29 73 -88 145 -118 39 -16 147 -65 240 -109 195 -90
314 -139 574 -232 430 -155 705 -311 1241 -703 273 -201 527 -373 885 -602
533 -341 837 -552 915 -635 51 -55 118 -95 158 -95 30 0 33 2 27 23 -4 12 -19
40 -34 62 -42 63 -488 505 -586 581 -53 41 -126 112 -180 174 -135 158 -199
217 -335 310 -132 90 -196 140 -325 255 -238 211 -491 371 -791 501 -365 158
-674 256 -1005 318 -74 14 -201 44 -282 66 -146 40 -596 190 -629 210 -14 8
-18 7 -18 -6z"/>
<path d="M4435 3196 c-11 -7 -51 -33 -90 -57 -38 -24 -178 -125 -310 -225
-576 -433 -1369 -941 -1897 -1214 -213 -110 -282 -159 -333 -235 -31 -47 -44
-85 -30 -85 24 0 334 -32 346 -35 10 -3 83 46 190 129 96 73 435 326 754 561
719 530 915 683 1125 876 91 83 195 170 231 194 63 41 79 59 79 91 0 17 -38
18 -65 0z"/>
</g>
</svg>
