<svg xmlns="http://www.w3.org/2000/svg" xmlns:xlink="http://www.w3.org/1999/xlink" xml:space="preserve" version="1.1" style="shape-rendering:geometricPrecision;text-rendering:geometricPrecision;image-rendering:optimizeQuality;" viewBox="0 0 60000 75000" x="0px" y="0px" fill-rule="evenodd" clip-rule="evenodd"><defs><style type="text/css">
   
    .fil0 {fill:black;fill-rule:nonzero}
   
  </style></defs><g><path class="fil0" d="M43594.11 21177.87c1041.23,-676.84 4675.6,-4945.31 7744.92,-9121.28 738.81,-1005.19 1442.92,-2002.32 2067.75,-2939.1 12.08,-22.52 26.33,-43.93 42.63,-63.89 1300.27,-1955.05 2248.1,-3640 2431.91,-4573.45 57.01,-289.51 -8.41,-573.29 -153.54,-802.65 -79.14,-125.07 -182.15,-234.08 -302.08,-319.1 -115.74,-82.06 -247.94,-140.87 -389.92,-168.82 -240.17,-47.29 -511.6,-3.73 -783.22,168.13 -1184.59,749.46 -3302.04,3696.16 -5371.25,6989.04 -2762.25,4395.77 -5406.89,9361.57 -5654.19,10580.62 -20.45,100.8 -17.52,183.22 3.33,245 11.68,34.63 28.58,59.45 48.63,73.09 20.65,14.04 51.15,20.8 89.41,18.86 63.25,-3.2 139.73,-30.62 225.62,-86.45zm-33692.35 31142.84c445.56,0 848.99,180.64 1141.03,472.68 292.04,292.04 472.68,695.47 472.68,1141.03 0,445.57 -180.64,848.99 -472.68,1141.03 -292.04,292.04 -695.47,472.68 -1141.03,472.68 -445.57,0 -848.99,-180.64 -1141.03,-472.68 -292.04,-292.04 -472.68,-695.46 -472.68,-1141.03 0,-445.56 180.64,-848.99 472.68,-1141.03 292.04,-292.04 695.46,-472.68 1141.03,-472.68zm575.41 1038.3c-147.23,-147.23 -350.68,-238.3 -575.41,-238.3 -224.74,0 -428.18,91.07 -575.41,238.3 -147.23,147.23 -238.3,350.68 -238.3,575.41 0,224.74 91.07,428.18 238.3,575.41 147.23,147.23 350.67,238.3 575.41,238.3 224.73,0 428.18,-91.07 575.41,-238.3 147.23,-147.23 238.3,-350.67 238.3,-575.41 0,-224.73 -91.07,-428.18 -238.3,-575.41zm-575.41 -3896.19c1234.75,0 2352.65,500.52 3161.86,1309.74 809.22,809.21 1309.74,1927.11 1309.74,3161.86 0,1234.75 -500.52,2352.65 -1309.74,3161.87 -809.21,809.21 -1927.11,1309.73 -3161.86,1309.73 -1234.75,0 -2352.65,-500.52 -3161.87,-1309.73 -809.21,-809.22 -1309.73,-1927.12 -1309.73,-3161.87 0,-1234.76 500.53,-2352.66 1309.73,-3161.86 809.22,-809.22 1927.12,-1309.74 3161.87,-1309.74zm2596.24 1875.36c-664.4,-664.4 -1582.32,-1075.36 -2596.24,-1075.36 -1013.92,0 -1931.84,410.95 -2596.25,1075.36 -664.39,664.39 -1075.35,1582.31 -1075.35,2596.24 0,1013.92 410.95,1931.85 1075.35,2596.25 664.4,664.4 1582.33,1075.35 2596.25,1075.35 1013.92,0 1931.85,-410.96 2596.24,-1075.35 664.41,-664.41 1075.36,-1582.33 1075.36,-2596.25 0,-1013.92 -410.96,-1931.84 -1075.36,-2596.24zm28763.01 -27316.22c212.94,-203.83 141.81,-558.4 -133.76,-664.02 -144.7,-54.18 -305.13,-22.13 -417.44,84.2l-68.04 64.32 -68.47 63.95 -68.89 63.64 -69.29 63.27 -69.67 62.9 -70.12 62.57 -70.49 62.23 -70.9 61.87 -71.29 61.54 -71.69 61.19 -72.07 60.86 -72.44 60.5 -72.83 60.15 -73.19 59.81 -73.58 59.48 -73.96 59.14 -45.8 36.24c-222.77,178.65 -194.2,523.73 55.36,663.16 142.95,78.16 314.68,63.79 442.66,-37.08l45.8 -36.24 77.2 -61.74 76.86 -62.12 76.51 -62.51 76.11 -62.89 75.76 -63.26 75.37 -63.64 74.99 -64.01 74.61 -64.4 74.24 -64.79 73.83 -65.17 73.44 -65.55 73.07 -65.96 72.63 -66.33 72.23 -66.7 71.83 -67.11 71.42 -67.5zm-35885.14 25186.99c142.8,258.19 503.65,279.17 676.19,39.8 89.29,-126.28 99.12,-289.27 24.91,-425.12l-17.94 -32.33 -57.58 -105.79 -55.95 -104.89 -54.31 -103.93 -52.7 -103.03 -51.11 -102.08 -49.48 -101.13 -47.92 -100.27 -46.35 -99.32 -44.76 -98.4 -43.22 -97.5 -41.68 -96.59 -40.15 -95.68 -38.61 -94.77 -23.76 -60.09c-102.8,-260.78 -431.7,-339.28 -640.85,-151.96 -123.47,112.5 -164.88,286.1 -104.69,442.08l26.86 67.95 41.77 102.51 43.31 103.22 44.84 103.93 46.4 104.68 47.98 105.44 49.53 106.16 51.1 106.91 52.7 107.71 54.29 108.46 55.88 109.23 57.51 110.03 59.11 110.81 60.74 111.63 17.94 32.33zm-1252.93 -3964.54c1.58,204.37 155.73,374.37 359.06,395.43 237.59,23.57 441.84,-161.64 440.92,-400.43l-0.83 -58.39 0.14 -70.84 1.27 -70.14 2.41 -69.38 3.54 -68.73 4.63 -68.04 5.75 -67.36 6.81 -66.7 7.91 -66.03 8.96 -65.42 10.02 -64.78 11.07 -64.15 12.11 -63.56 13.13 -62.96 14.16 -62.4 15.16 -61.8 16.18 -61.29 17.17 -60.73 18.14 -60.16 19.15 -59.67 20.12 -59.18 21.08 -58.64 4.26 -11.23c103.92,-269.3 -100.6,-555.45 -389.18,-544.76 -160.08,7.25 -297.66,105.72 -356.42,254.78l-9.12 24.07 -25.78 71.7 -24.58 72.3 -23.39 72.91 -22.2 73.58 -20.95 74.15 -19.74 74.77 -18.5 75.42 -17.24 76 -15.99 76.62 -14.71 77.24 -13.43 77.85 -12.14 78.46 -10.84 79.04 -9.53 79.67 -8.21 80.26 -6.89 80.86 -5.55 81.46 -4.22 82.03 -2.87 82.7 -1.51 83.24 -0.16 83.84 0.83 58.39zm1787.57 -3798.43c-211.67,186.58 -171.38,525.98 79.44,656.59 146.86,75.12 322.47,54.35 447,-54.21l28.1 -24.82 52.88 -45.74 53.65 -45.43 54.42 -45.17 55.19 -44.91 55.9 -44.6 56.68 -44.35 57.41 -44.09 58.12 -43.82 58.85 -43.57 59.53 -43.28 60.24 -43.05 60.95 -42.79 61.62 -42.55 62.28 -42.3 62.94 -42.05 63.59 -41.81 64.24 -41.56 64.91 -41.36 65.51 -41.13 80 -49.35c146.72,-89.63 219.29,-258.08 184.1,-426.26 -59.48,-269.32 -361.76,-399.87 -598.26,-258.18l-18.27 11.13 -70.63 43.68 -70.07 43.99 -69.53 44.3 -69.04 44.68 -68.49 45.03 -67.92 45.37 -67.36 45.74 -66.78 46.11 -66.19 46.49 -65.62 46.87 -65.01 47.28 -64.39 47.67 -63.76 48.06 -63.13 48.49 -62.5 48.91 -61.86 49.36 -61.17 49.77 -60.5 50.21 -59.83 50.69 -59.14 51.14 -28.1 24.82zm3523.58 -2102.54c-247.29,112.12 -313.96,428.63 -133.98,631.8 117.83,129.97 301.59,169.23 462.04,97.84l120.36 -54.05 80.46 -35.81 80.77 -35.71c390.54,-171.59 783.15,-337.73 1177.33,-500.78 257.66,-107.81 329.9,-436.46 140.26,-642.09 -114.89,-122.46 -290.34,-161.01 -445.84,-97.25 -372.04,154.03 -742.73,310.56 -1111.74,471.74l-82.69 36.34 -82.47 36.47 -82.24 36.59 -122.26 54.91zm3696.89 -1549.56c-267.39,114.59 -328.41,463.56 -115.47,662.15 116.85,107.06 281.43,135.61 427.61,74.45 190.57,-80.6 380.62,-162.12 570.34,-244.7l168.86 -74.15 84.2 -37.32 84.04 -37.47 83.89 -37.66 83.68 -37.84 83.46 -38 83.28 -38.19 83.1 -38.4 82.85 -38.59 69.43 -32.61c270.39,-128.26 309.86,-494.4 73.95,-678.43 -119.82,-91.74 -278.39,-109.44 -415.15,-45.15l-67.13 31.51 -80.65 37.57 -80.92 37.4 -81.24 37.25 -81.52 37.12 -81.76 36.96 -82.01 36.82 -82.26 36.69c-269.26,119.29 -539.34,235.88 -810.58,350.59zm3507.09 -1760.77c-239.67,157.56 -242.31,505.19 -5.2,666.8 134.63,89.53 306.3,91.61 442.18,3.32l42.23 -27.33 72.05 -47.35 71.56 -47.72 71.02 -48.12 70.5 -48.51 69.99 -48.93 101 -71.78 100.9 -72.89 100.78 -74 100.68 -75.09 100.54 -76.16 100.44 -77.25 100.27 -78.3 100.15 -79.35 100.02 -80.41 22.8 -18.6c203.61,-168.82 192.79,-480.53 -21.94,-635.13 -147.63,-104.51 -345.81,-97.88 -485.8,16.91l-18.52 15.1 -95.6 76.87 -95.69 75.81 -95.75 74.76 -95.78 73.67 -95.84 72.6 -95.86 71.51 -95.88 70.38 -95.9 69.29 -95.9 68.16 -65.03 45.47 -65.66 45.17 -66.26 44.88 -66.84 44.6 -67.43 44.29 -42.23 27.33zm2988.7 -2511.06c-198.52,205.14 -125.65,544.4 139.47,650.68 151.77,59.09 320.27,23.34 434.31,-93.22l40.37 -41.31 95.74 -99.09 95.46 -99.94 95.16 -100.76 94.86 -101.55 94.58 -102.38 94.25 -103.14 93.95 -103.94 93.63 -104.72 93.29 -105.48 92.95 -106.21 92.61 -106.96 20.59 -24.04c186.1,-219.53 88.28,-555.31 -186.2,-641.68 -153.82,-46.87 -317.96,0.61 -422.68,122.78l-17.87 20.86 -89.87 103.78 -90.17 103.05 -90.47 102.28 -90.75 101.5 -91.05 100.72 -91.33 99.96 -91.58 99.14 -91.86 98.33 -92.1 97.52 -92.34 96.66 -92.58 95.85 -40.37 41.31zm3387.1 -2850.64l33.32 -47.33 83.82 -120.26 83.34 -120.81 82.82 -121.3 82.33 -121.83 81.8 -122.31 81.28 -122.8 80.75 -123.27 92.56 -142.98c154,-244.39 10.61,-563.99 -275.02,-610.4 -157.96,-24.35 -313.03,45.58 -399.4,180.08l-88.4 136.54 -78.65 120.07 -79.18 119.62 -79.66 119.13 -80.17 118.63 -80.66 118.14 -81.14 117.61 -81.64 117.12 -82.09 116.59 -82.54 116.02 -17.11 23.8c-396.87,32.72 -796.83,61.32 -1194.65,78.94 -296.73,14.95 -473.54,334.42 -330.03,594.45 75.07,133.11 215.93,211.72 368.77,204.61 537.21,-23.79 1078.27,-65.53 1613.7,-115.18 257.51,-25.05 416.64,-276.46 345.85,-512.88zm1230.22 -3513.7c-129.77,245.59 19.85,542.39 294.58,584.39 168.44,23.67 330.14,-57.44 411,-207.33l28.26 -52.57 69.31 -130.49 68.63 -130.74 67.96 -131.03 67.27 -131.3 66.56 -131.53 65.86 -131.77 65.17 -132.02 64.43 -132.23 63.72 -132.45 62.98 -132.67 37.75 -80.55c123.18,-268.04 -72.31,-571.27 -367.74,-568.84 -154.79,2.56 -291.7,91.18 -357.56,231.28l-36.01 76.87 -61.22 128.95 -61.96 128.77 -62.67 128.61 -63.37 128.4 -64.08 128.21 -64.76 127.97 -65.45 127.74 -66.14 127.51 -66.79 127.26 -67.47 126.99 -28.26 52.57zm1613.44 -3591.7c-100.82,286.06 137.56,575.17 437.9,529.93 146.16,-23.24 265.07,-121.65 315.46,-260.79l29.1 -80.73 47.68 -134.7 46.8 -134.7 45.91 -134.68 45.03 -134.71 44.11 -134.69 43.21 -134.65 42.29 -134.61 41.36 -134.56 40.45 -134.52 39.49 -134.47 34.61 -120.66c82.07,-291.94 -176.13,-564.72 -472.38,-499.44 -143.84,32.91 -256.79,139.25 -297.3,281.32l-33.21 115.76 -38.07 129.59 -38.99 129.72 -39.92 129.84 -40.81 129.93 -41.73 130.03 -42.61 130.09 -43.51 130.15 -44.39 130.24 -45.26 130.28 -46.12 130.3 -29.1 80.73zm986.65 -3789.43c-40.89,282.94 214.83,515.26 492.77,447.24 157.5,-40.04 273.97,-168.3 298.45,-329.02l2.53 -16.53 19.07 -131.2 17.96 -130.93 16.86 -130.67 15.72 -130.37 14.62 -130.09 13.46 -129.81 12.32 -129.48 11.16 -129.18 10 -128.84 8.83 -128.51 7.65 -128.15 6.47 -127.82 2.67 -64.57c5.89,-169.49 -93.79,-322.36 -250.82,-386 -257.78,-102.2 -537.9,79.68 -548.64,356.74l-2.37 57.11 -6.09 120.48 -7.23 120.95 -8.33 121.39 -9.46 121.82 -10.56 122.24 -11.68 122.66 -12.76 123.05 -13.86 123.45 -14.94 123.85 -16.02 124.19 -17.1 124.57 -18.15 124.9 -2.53 16.53zm13.54 -3852.55c52.91,285.92 379.83,422.55 620.42,258.57 130.08,-90.41 194.4,-244.62 166.86,-400.69l-7.59 -43.59 -21.96 -117.52 -23.36 -116.96 -24.78 -116.33 -26.18 -115.72 -27.61 -115.13 -29.06 -114.48 -30.5 -113.84 -31.97 -113.2 -33.42 -112.5 -34.89 -111.83 -36.39 -111.14 -37.87 -110.43 -39.38 -109.74 -34.3 -91.39c-63.31,-164.06 -223.8,-266.79 -399.21,-256.05 -269.67,18.64 -443.8,289.85 -347.75,542.51l30.24 80.57 35.52 98.96 34.21 99.77 32.91 100.54 31.61 101.29 30.32 102.06 29.03 102.8 27.74 103.54 26.46 104.26 25.19 104.99 23.92 105.74 22.66 106.43 21.4 107.1 20.14 107.82 7.59 43.59zm-1539.53 -3408.55c192.45,220.75 546.73,168.62 667.55,-98.4 63.16,-143.09 39.47,-306.72 -62.81,-425.34l-22.5 -26.43 -77.81 -88.34 -79.47 -87.27 -81.17 -86.21 -82.85 -85.08 -84.53 -83.98 -86.23 -82.86 -87.92 -81.71 -89.61 -80.56 -91.32 -79.39 -93.02 -78.23 -94.72 -77.02 -96.44 -75.84 -98.17 -74.62 -76.58 -56.29c-228.51,-164.31 -548.66,-49.28 -621.28,222.76 -41.43,160.96 18.28,327.9 152.78,425.72l66.16 48.61 87.77 66.72 86.14 67.74 84.54 68.74 82.92 69.73 81.34 70.73 79.75 71.7 78.2 72.67 76.61 73.62 75.09 74.6 73.55 75.54 72.01 76.47 70.51 77.43 69.01 78.36 22.5 26.43zm-3128.2 -2068.37c269.22,94.89 547.24,-113.11 533.16,-398.22 -9.34,-162.16 -112.73,-301.2 -265.92,-355.82l-27.05 -9.79 -134.84 -46.77 -136.61 -45.32 -138.39 -43.9 -140.22 -42.46 -142.02 -41.01 -143.83 -39.56 -145.63 -38.08 -147.47 -36.62 -149.31 -35.14 -151.12 -33.65 -137.9 -29c-270.08,-54.23 -511.38,170.96 -476.66,444.27 23.23,170.32 148.49,304.34 316.68,339.57l128.66 27.06 141.8 31.57 139.83 32.9 137.89 34.26 135.99 35.56 134.05 36.86 132.16 38.17 130.24 39.44 128.37 40.72 126.49 41.96 124.6 43.21 27.05 9.79zm-3715.36 -325.39c195.18,-38.42 331.78,-212.35 323.07,-411.01 -11.68,-244.3 -236.21,-420.51 -476.19,-374.21l-51.26 9.66 -106.07 21.39 -105.05 22.61 -104.02 23.78 -103.04 24.99 -102.04 26.15 -101 27.33 -99.99 28.46 -99.03 29.62 -98 30.74 -97 31.87 -95.99 32.97 -94.98 34.06 -94 35.15 -92.99 36.23 -91.98 37.29 -74.42 31.36c-272.6,118.47 -327.07,478.5 -101.35,672.32 117.11,98.75 276.02,122.6 417.03,62.76l64.32 -27.1 81.88 -33.19 82.83 -32.27 83.82 -31.35 84.8 -30.42 85.81 -29.47 86.78 -28.51 87.78 -27.54 88.79 -26.56 89.83 -25.56 90.84 -24.57 91.82 -23.55 92.88 -22.51 93.92 -21.48 94.95 -20.43 95.99 -19.35 51.26 -9.66zm-3309.15 1670.88c175.28,-177.2 150.28,-465.39 -52.95,-609.85 -160.35,-111.85 -374.55,-93.25 -513.21,44.65l-49.3 48.74 -62.35 63.27 -61.38 63.93 -60.44 64.59 -59.46 65.21 -58.51 65.83 -57.6 66.48 -56.62 67.05 -55.65 67.6 -54.73 68.19 -53.81 68.76 -52.87 69.3 -51.94 69.84 -50.99 70.34 -50.07 70.84 -49.17 71.35 -48.23 71.83 -47.33 72.28 -46.41 72.74 -26.57 42.73c-153.78,251.74 6.53,575.61 300.04,607.27 153.88,15.26 300.41,-57.17 381.74,-188.73l21.69 -34.87 41.39 -64.88 42.17 -64.42 42.97 -63.97 43.73 -63.47 44.55 -63.02 45.33 -62.52 46.12 -62.02 46.91 -61.5 47.71 -60.98 48.53 -60.45 49.35 -59.94 50.12 -59.37 50.92 -58.78 51.77 -58.23 52.58 -57.67 53.4 -57.07 54.22 -56.47 55.05 -55.87 49.3 -48.74zm-1811.1 3265.33c66.85,-280.78 -172.53,-537.4 -457.6,-488.7 -157.57,28.35 -281.3,144.01 -319.72,299.54l-12.6 50.76 -19.29 80.93 -18.5 81 -17.73 81.07 -16.94 81.11 -16.17 81.1 -15.4 81.16 -14.64 81.2 -13.86 81.15 -13.11 81.16 -12.34 81.14 -11.6 81.08 -10.85 81.08 -10.09 81 -9.36 80.91 -8.62 80.9 -7.88 80.78 -7.14 80.68 -6.41 80.56 -5.7 80.45 -3.82 61.85c-15.76,290.48 270.71,499.47 542.84,396.37 147.73,-57.52 246.05,-192.39 255.86,-350.61l3.38 -54.73 5.18 -73.37 5.85 -73.5 6.52 -73.6 7.18 -73.68 7.86 -73.74 8.54 -73.85 9.21 -73.9 9.89 -73.9 10.58 -73.98 11.26 -73.98 11.95 -73.98 12.64 -73.99 13.32 -73.94 14.04 -73.92 14.73 -73.94 15.42 -73.83 16.13 -73.77 16.84 -73.7 17.55 -73.61 12.6 -50.76zm-37.07 3768.53c-46.03,-180.54 -209.68,-305.41 -395.99,-301.65 -257.88,6.24 -442.23,248.22 -379.45,498.35l5.95 24.01 18.06 69.66 18.68 69.13 19.33 68.68 19.97 68.17 20.61 67.61 21.24 67.06 21.87 66.53 22.51 65.99 23.14 65.41 23.78 64.83 24.41 64.25 25.06 63.68 25.67 63.01 26.29 62.39 26.95 61.81 27.58 61.15 28.2 60.49 28.84 59.82 29.47 59.16 30.13 58.51 30.76 57.79 31.38 57.04 32.03 56.36 32.68 55.62 30.87 50.88c150.12,241.07 491.97,255.07 662.17,27.74 97.22,-133 104.54,-307.25 18.63,-447.88l-24.81 -40.88 -26.86 -45.72 -26.43 -46.52 -26.06 -47.38 -25.62 -48.13 -25.19 -48.91 -24.77 -49.72 -24.34 -50.5 -23.9 -51.25 -23.44 -51.97 -22.97 -52.69 -22.53 -53.47 -22.07 -54.15 -21.56 -54.8 -21.09 -55.51 -20.6 -56.19 -20.12 -56.85 -19.61 -57.47 -19.11 -58.13 -18.6 -58.76 -18.09 -59.37 -17.57 -59.91 -17.03 -60.52 -16.52 -61.13 -15.98 -61.66 -5.95 -24.01zm2127.95 2425.02c-290.52,4.49 -479.47,305.61 -357.17,569.39 67.52,142.82 209.59,232.38 367.75,230.55l31.61 0 61.94 -1.63 62.18 -3.22 62.42 -4.84 62.7 -6.44 62.96 -8.07 63.12 -9.69 63.3 -11.28 63.55 -12.93 63.7 -14.54 63.83 -16.16 63.96 -17.76 64.16 -19.39 64.25 -21 64.39 -22.62 64.51 -24.24 64.62 -25.84 64.76 -27.47 64.8 -29.06 64.95 -30.69c171.22,-83.56 330.67,-180.76 481.9,-296.77 228.4,-176.03 201.23,-527.8 -51.01,-667.54 -140.74,-76.65 -309.38,-63.64 -436.83,33.5 -126.53,96.82 -249.88,166.92 -393.63,234.84l-50.18 22.5 -49.58 21.05 -49.08 19.62 -48.53 18.24 -47.99 16.84 -47.45 15.52 -46.88 14.17 -46.38 12.88 -45.85 11.6 -45.26 10.34 -44.73 9.09 -44.26 7.9 -43.74 6.71 -43.18 5.53 -42.72 4.4 -42.26 3.26 -41.78 2.18 -41.26 1.07 -31.61 0zm1813.9 -2125.88c98.01,263.53 427.89,347.51 639.78,162.11 124,-110.37 168.15,-282.32 110.96,-438.47l-33.84 -93.56 -42.72 -114.08 -43.68 -112.69 -44.62 -111.3 -45.55 -109.9 -46.47 -108.51 -47.38 -107.14 -48.29 -105.75 -49.19 -104.38 -50.08 -103 -50.96 -101.65 -51.84 -100.3 -52.72 -98.93 -53.57 -97.57 -27.02 -47.77c-139.56,-242.34 -475.24,-270.32 -654.8,-56.45 -106.67,130.07 -122.33,308.28 -39.06,454.65l22.06 38.99 48.73 88.75 48 90.09 47.28 91.46 46.56 92.87 45.82 94.26 45.07 95.64 44.31 97.03 43.54 98.44 42.77 99.87 41.97 101.28 41.18 102.72 40.36 104.13 39.56 105.6 33.84 93.56zm-2036 -3156.88c215.73,183.97 546.61,94.25 639.5,-173.98 52.45,-155.32 6.48,-325.34 -117.8,-432.5l-60.92 -53.15 -73.32 -62.18 -73.9 -60.89 -74.47 -59.65 -75.06 -58.37 -75.59 -57.12 -76.16 -55.89 -76.69 -54.63 -77.21 -53.38 -77.7 -52.14 -78.26 -50.95 -78.74 -49.68 -79.15 -48.45 -79.68 -47.26 -80.14 -46.04 -80.57 -44.82 -81 -43.62 -81.43 -42.43 -23.04 -11.61c-241.49,-118.66 -527.28,27.58 -572.26,293.06 -28.12,175.21 58.65,344.22 217.2,423.84l13.32 6.71 71.73 37.37 71.36 38.42 70.95 39.48 70.54 40.52 70.12 41.6 69.77 42.69 69.3 43.74 68.84 44.81 68.46 45.94 68.01 47.02 67.53 48.11 67.1 49.23 66.65 50.36 66.16 51.47 65.69 52.59 65.22 53.75 64.72 54.88 60.92 53.15zm-3391.31 -1480.93c284.99,29.94 507.92,-237.13 426.76,-512.36 -47.19,-154.85 -178.87,-264.74 -339.84,-282.9l-51.31 -5.9 -89.2 -9.24 -89.33 -8.23 -89.42 -7.23 -89.48 -6.24 -89.58 -5.26 -89.66 -4.26 -89.7 -3.3 -89.74 -2.33 -89.79 -1.38 -89.86 -0.42 -89.85 0.53 -89.85 1.47 -89.88 2.4 -89.89 3.34 -89.84 4.25 -89.86 5.16 -89.83 6.08 -89.74 6.98 -11.77 1.04c-285.32,27.76 -450.16,333.75 -315.7,587.34 77.12,142.28 228.26,223.62 389.54,209.24l85.71 -6.7 81.77 -5.54 81.74 -4.7 81.72 -3.87 81.65 -3.02 81.6 -2.18 81.55 -1.33 81.45 -0.49 81.34 0.38 81.27 1.24 81.18 2.11 81.06 2.98 80.92 3.86 80.8 4.74 80.68 5.62 80.52 6.51 80.35 7.41 80.2 8.3 51.31 5.9zm-3759.21 466.09c219.75,-78.35 326.7,-325.56 232.29,-539.14 -84.55,-191.27 -302.09,-284.5 -499.15,-215.04l-17.23 6.01 -85.02 30.5 -84.75 31.22 -84.45 31.95 -84.14 32.65 -83.83 33.36 -83.52 34.07 -83.18 34.76 -82.83 35.45 -82.51 36.14 -82.14 36.83 -81.77 37.49 -81.39 38.15 -81.03 38.82 -80.64 39.49 -80.24 40.14 -79.84 40.79 -79.4 41.42 -79 42.06 -23.45 12.75c-259.89,143.75 -279.39,508.18 -36.12,678.96 125.79,86.79 286.89,95.63 421.14,22.3l17.43 -9.47 73 -38.88 73.4 -38.28 73.78 -37.71 74.16 -37.08 74.54 -36.51 74.89 -35.88 75.27 -35.29 75.61 -34.67 75.92 -34.03 76.25 -33.4 76.59 -32.77 76.88 -32.14 77.18 -31.47 77.47 -30.84 77.76 -30.17 78.01 -29.51 78.29 -28.84 78.54 -28.18 17.23 -6.01zm-3271.01 1951.59c210.85,-198.52 149.53,-546.34 -116.95,-660.54 -146.9,-61.64 -312.54,-32.08 -429.37,76.14l-15.72 14.56 -62.37 58.86 -61.71 59.38 -60.97 59.83 -60.3 60.32 -59.57 60.81 -58.85 61.26 -58.09 61.72 -57.38 62.19 -56.61 62.64 -55.86 63.1 -55.1 63.55 -54.28 63.98 -53.51 64.41 -52.73 64.87 -51.9 65.28 -51.08 65.69 -50.27 66.14 -49.43 66.57 -48.54 66.92 -35.3 49.82c-158.58,227.15 -44.51,541.85 222.58,615.41 164.24,43.84 334.74,-17.77 432.84,-156.69l30.04 -42.4 43.32 -59.72 44.09 -59.37 44.91 -59.08 45.74 -58.83 46.52 -58.52 47.29 -58.19 48.09 -57.89 48.86 -57.56 49.6 -57.23 50.38 -56.9 51.11 -56.56 51.86 -56.21 52.59 -55.86 53.31 -55.5 54.01 -55.13 54.72 -54.74 55.43 -54.39 56.09 -53.98 56.79 -53.6 15.72 -14.56zm-1889.03 3159.68c46.3,-262.39 -167.74,-493.99 -433.07,-469.18 -178.86,18.25 -321.52,150.43 -354.21,327.12l-3.75 19.91 -13.45 78.03 -12.22 78.26 -10.97 78.46 -9.71 78.61 -8.46 78.86 -7.17 79.03 -5.9 79.22 -4.58 79.38 -3.28 79.52 -1.96 79.67 -0.63 79.8 0.71 79.98 2.07 80.06 3.42 80.16 4.81 80.28 6.17 80.35 7.58 80.45 8.96 80.49 10.39 80.59 11.8 80.59 13.21 80.65 8.13 44.7c36.54,189.4 201.56,325.93 394.6,325.16 250.67,-2.01 437.82,-228.48 391.24,-474.96l-5.65 -31.12 -10.99 -67.07 -9.82 -67.03 -8.61 -66.91 -7.46 -66.89 -6.28 -66.79 -5.13 -66.77 -3.99 -66.68 -2.84 -66.62 -1.73 -66.56 -0.59 -66.44 0.53 -66.44 1.62 -66.35 2.74 -66.28 3.82 -66.18 4.92 -66.12 5.99 -66.05 7.08 -65.94 8.15 -65.93 9.19 -65.8 10.26 -65.68 11.31 -65.63 3.75 -19.91zm761.16 3585.12c-131.5,-245.75 -462.81,-287.35 -650.79,-81.14 -112.61,125.74 -134.92,305.3 -56.57,454.82l13.31 25.48 39.94 74.76 40.58 74.3 41.2 73.81 41.82 73.31 42.43 72.87 43.08 72.43 43.66 71.92 44.27 71.45 44.86 70.97 45.45 70.52 46.05 70.07 46.65 69.6 47.21 69.11 47.77 68.64 48.35 68.19 48.92 67.74 49.48 67.29 50.02 66.79 50.57 66.36 28.79 37.1c174.02,220.78 513.81,199.82 658.68,-41.64 84.38,-142.9 73.47,-320.35 -28.66,-451.38l-24.63 -31.74 -46.43 -60.92 -45.92 -61.33 -45.38 -61.69 -44.84 -62.1 -44.31 -62.51 -43.79 -62.92 -43.25 -63.31 -42.67 -63.68 -42.13 -64.09 -41.59 -64.52 -41.04 -64.93 -40.47 -65.33 -39.92 -65.74 -39.32 -66.11 -38.77 -66.57 -38.2 -66.99 -37.62 -67.39 -37.04 -67.8 -36.44 -68.22 -13.31 -25.48zm2445.55 2921.88c-218.45,-174.11 -541.27,-79.33 -630.41,185.8 -52.32,159.72 -1.38,331.83 129.13,437.66l36.62 29.65 65.5 52.31 65.9 51.89 66.29 51.49 66.66 51.08 67.04 50.67 67.42 50.26 67.79 49.86 68.12 49.43 68.51 49.05 68.87 48.64 69.17 48.22 69.54 47.85 69.88 47.44 70.2 47.03 70.55 46.66 70.87 46.25 71.18 45.86 71.49 45.46 70.92 44.52c243.11,150.29 558.26,7.89 606.42,-274.01 26.01,-160.73 -45.32,-317.98 -183.02,-404.75l-66.98 -42.06 -67.55 -42.96 -67.22 -43.3 -66.85 -43.63 -66.51 -43.98 -66.18 -44.35 -65.82 -44.68 -65.46 -45.03 -65.13 -45.4 -64.73 -45.72 -64.35 -46.09 -64.02 -46.45 -63.61 -46.78 -63.22 -47.14 -62.86 -47.51 -62.48 -47.86 -62.07 -48.21 -61.68 -48.59 -61.3 -48.93 -36.62 -29.65zm3338.15 1979.54c-262.69,-112.58 -553.33,74.76 -559.21,360.74 -2,162.72 91.96,307.86 240.91,373.22l99.98 43.2 79.32 33.78 79.53 33.44 79.66 33.07 79.8 32.74 79.99 32.42 80.16 32.08 80.3 31.74 80.44 31.41 80.61 31.09 80.71 30.73 80.86 30.42 81.02 30.1 81.12 29.76 81.23 29.43 81.36 29.12 81.5 28.8 81.58 28.48 51.8 17.85c255.38,86.52 518.53,-95.54 529.47,-364.72 5.05,-177.4 -102.61,-333.72 -270.27,-392.12l-48.86 -16.85 -78.64 -27.44 -78.5 -27.74 -78.38 -28.06 -78.25 -28.35 -78.1 -28.66 -77.94 -28.94 -77.8 -29.28 -77.65 -29.57 -77.47 -29.87 -77.32 -30.19 -77.16 -30.5 -76.96 -30.8 -76.79 -31.12 -76.64 -31.44 -76.44 -31.75 -76.21 -32.04 -76.04 -32.38 -96.72 -41.8zm3729.77 1219.64c-289.02,-67.67 -548.11,190.11 -481.85,479.7 35.27,148.63 148.77,263.36 297.61,298.8l83.4 19.6 82.93 19.21 82.88 18.93 82.88 18.66 82.85 18.38 82.79 18.1 82.75 17.83 82.7 17.56 82.66 17.3 82.63 17.02 82.53 16.75 82.49 16.49 82.42 16.23 82.35 15.96 82.3 15.7 82.19 15.43 82.11 15.18 82.04 14.92 103.29 18.42c298.74,51.55 543.64,-233.37 448.06,-521.37 -47.59,-139.72 -164.96,-241.03 -310.48,-266.71l-98.87 -17.64 -79.78 -14.5 -79.85 -14.76 -79.95 -15.01 -79.98 -15.26 -80.05 -15.52 -80.12 -15.77 -80.19 -16.03 -80.23 -16.29 -80.27 -16.54 -80.3 -16.8 -80.36 -17.06 -80.39 -17.33 -80.43 -17.58 -80.41 -17.84 -80.46 -18.12 -80.48 -18.37 -80.47 -18.65 -80.94 -19.02zm3889.68 635.61c-276.29,-24.63 -492.65,228.58 -424.77,497.84 43.18,164.37 180.98,282.21 350.27,298.68l118.08 11c101.6,9.1 203.17,17.82 304.84,26.17 398.06,31.63 796.28,56.64 1195.31,72.31 279.17,9.7 481.77,-259.44 395.08,-525.22 -53.64,-159.55 -196.51,-267.03 -364.74,-274.2 -145.69,-5.72 -291.27,-12.98 -436.86,-20.86 -71.51,-4.08 -142.98,-8.32 -214.47,-12.73 -308.09,-19.88 -615.38,-43.85 -922.74,-72.99zm7875.74 -308.19c-280.07,43.76 -427.84,353.14 -284.86,598.41 84.53,141.33 241.6,216.78 404.8,192.55 268.45,-40.4 536.36,-83.98 804.02,-129.24 178.81,-30.66 357.32,-62.18 535.81,-94.65 84.01,-15.47 167.98,-31.07 251.92,-46.89 280.13,-54.04 416.05,-373.25 260.02,-612.57 -90.27,-135.73 -248.54,-203.13 -408.96,-173.45l-158.65 29.72c-466.86,85.87 -934.68,165.48 -1404.1,236.12zm3884.84 -772.53c-280.68,70.45 -396.03,405.52 -218.55,634.22 98.74,124.9 257.49,180.21 412.33,141.96l145.81 -36.45 93.94 -23.8 94.02 -24.07 94.07 -24.32 94.16 -24.57 94.22 -24.83 94.27 -25.09 94.35 -25.35 94.4 -25.62 94.43 -25.87 94.5 -26.14 94.54 -26.41 94.57 -26.65 94.63 -26.94 94.66 -27.2 93.26 -27.06c280.95,-82.7 381.14,-426.54 188.91,-647.78 -103.57,-117.08 -262.47,-163.73 -412.79,-120.26l-91.32 26.5 -92.7 26.64 -92.69 26.38 -92.67 26.13 -92.62 25.87 -92.6 25.6 -92.57 25.37 -92.5 25.1 -92.47 24.85 -92.41 24.59 -92.36 24.35 -92.3 24.09 -92.25 23.84 -92.18 23.59 -92.1 23.34 -143.99 35.99zm3784.5 -1149.56c-268.28,99.36 -348.57,435.66 -156.11,646.9 111.12,119.15 278.61,159.57 431.85,104.08l61.26 -22.39 94.21 -34.75 94.18 -35.05 94.07 -35.35 94 -35.62 93.96 -35.94 93.85 -36.23 93.77 -36.54 93.67 -36.82 93.6 -37.13 93.49 -37.42 93.41 -37.73 93.31 -38.04 93.17 -38.33 93.08 -38.63 92.98 -38.95 41.45 -17.53c253.48,-108.64 323.98,-430.47 140.71,-636.23 -115.68,-126.9 -294.99,-166.69 -453.41,-100.13l-129.63 54.46 -90.7 37.65 -90.85 37.37 -90.93 37.08 -91.05 36.77 -91.17 36.5 -91.28 36.21 -91.39 35.92 -91.49 35.64 -91.57 35.35 -91.64 35.06 -91.78 34.78 -91.85 34.51 -91.9 34.21 -92.01 33.93 -61.26 22.39zm3608.96 -1588.07c-249.12,133.3 -287.03,472.31 -73.11,657.32 126.13,107.14 300.95,126.45 447.53,49.64l35.63 -18.78 88.81 -47.25 88.57 -47.58 88.36 -47.91 88.15 -48.24 87.93 -48.59 87.7 -48.92 87.49 -49.26 87.25 -49.6 87.01 -49.94 86.77 -50.27 86.53 -50.62 86.3 -50.97 86.03 -51.31 85.79 -51.65 85.53 -52 68.81 -42.25c216.65,-134.92 254.8,-431.01 79.46,-616.6 -131.67,-137 -337.38,-163.29 -499.5,-64.26l-65.85 40.43 -82.59 50.22 -82.85 49.89 -83.13 49.57 -83.38 49.25 -83.65 48.92 -83.91 48.63 -84.17 48.3 -84.39 47.98 -84.65 47.66 -84.9 47.36 -85.13 47.03 -85.35 46.72 -85.6 46.41 -85.83 46.1 -86.03 45.79 -35.63 18.78zm15751.84 -14060.12c-242.65,330.13 -489.05,661.03 -737.67,990.86l5573.39 6846.02c82.56,101.41 195.75,204.54 320.46,278.41 85.51,50.64 169.77,84.51 240.1,86.85l975.11 -9.18 -4669.44 -10592.36c-530.87,779.66 -1105.64,1588.08 -1701.95,2399.4zm-1234.1 1644.25c-1338.46,1748.27 -2711.03,3433.5 -3884.96,4785.65l1832.59 4157.11c7.16,16.26 13.13,32.74 17.98,49.35 19.92,58.63 30.1,117.44 30.65,175.12 0.91,95.36 -23.51,183.5 -72.8,261.75 -51.67,82.03 -124.92,144.54 -219.07,184.3 -62.44,26.43 -132.3,40.81 -208.64,41.55l-432.18 4.07 -10.94 -0.07c-130.38,-2.83 -252.11,-44.67 -357.35,-107.02 -102.96,-60.98 -196.22,-145.9 -264.11,-229.28l-2102.94 -2583.12c-449.78,455.44 -810.17,779.62 -1048.43,934.5 -209.57,136.23 -422.81,204.44 -622.5,214.57 -213.34,10.81 -410.04,-45 -573.79,-156.36 -164.32,-111.78 -289.13,-275.27 -358.01,-479.35 -63.36,-187.67 -77.95,-409.82 -28.33,-654.38 61.09,-301.19 253.62,-807.6 548.4,-1463.59 -77.75,26.41 -164.3,29.22 -248.61,2.62l-3223.31 -1021.97c-100.26,-31.77 -212.73,-87.4 -308.95,-162.04 -97.62,-75.72 -181.67,-173.5 -231.72,-292.4l0.3 -0.13 -4.99 -12.37 -155.01 -403.44c-27.33,-71.13 -39.61,-141.13 -37.96,-208.46 2.45,-102.19 33.58,-193.14 90.78,-271.15 54.34,-74.06 127.83,-129.21 218.21,-163.9 62.21,-23.9 130.41,-36.39 202.83,-36.52 7.04,-0.12 14.13,-0.07 21.25,0.18l4604.92 179.43c79.07,2.79 151.95,28.42 212.51,70.33 830.1,-1591.04 1891.4,-3480.23 3021.25,-5357.18l-8504.68 -2696.46c-204.76,-64.9 -432.51,-177.07 -624.89,-326.29 -178.66,-138.59 -330.14,-312.06 -416.12,-516.29l0.3 -0.13 -4.99 -12.37 -419.01 -1090.56c-41.13,-107.06 -59.66,-209.46 -57.37,-305.3 3.15,-131.9 42.58,-248.37 114.99,-347.13 69.49,-94.8 165.1,-165.93 283.83,-211.54 95.03,-36.52 203.7,-54.77 323.11,-53.22 5.46,-0.03 10.93,0.02 16.44,0.21l3623.13 141.18 46.03 -1223.11c7.76,-220.05 192.45,-392.14 412.5,-384.38l1279.36 48.15c220.05,7.76 392.14,192.45 384.38,412.5l-46.21 1227.74 1632.27 63.6 74.1 -1968.9c7.76,-220.05 192.45,-392.14 412.5,-384.38l1279.36 48.16c220.05,7.76 392.14,192.45 384.38,412.5l-74.28 1973.52 3040.35 118.47c38.19,1.35 74.92,8.03 109.53,19.29 1336.14,-1890.15 2560.42,-3360.12 3402.79,-3893.07 459.7,-290.87 933.08,-361.84 1361.34,-277.51 254.08,50.02 491.19,155.65 699.3,303.2 203.91,144.56 379.37,330.41 514.58,544.1 249.1,393.68 361.18,881.76 262.92,1380.77 -197.47,1002.8 -1149.45,2727.51 -2454.35,4709.68l1140.77 2587.77 1807.61 -793.99c201.93,-88.02 436.99,4.32 525.01,206.25l514.9 1172.18c88.02,201.93 -4.32,436.99 -206.25,525.01l-1803.06 791.98 658.77 1494.39 1124.32 -493.86c201.93,-88.02 436.99,4.32 525.01,206.25l514.87 1172.18c88.02,201.93 -4.32,436.99 -206.25,525.01l-1119.74 491.84 1462.02 3316.51c5.72,12.99 10.68,26.11 14.92,39.33 39.65,103.08 59.76,203.52 60.65,298.67 1.2,125.68 -29.99,240.26 -92.98,340.26 -65.32,103.73 -159.21,183.3 -280.81,234.75 -88.68,37.5 -191.01,58.01 -305.88,59.09l-1168.23 11 -10.94 -0.07c-222.95,-4.87 -439.84,-81.63 -633.35,-196.24 -207.66,-123.01 -395.87,-294.39 -532.96,-462.79l-5451.06 -6695.75zm-4466.75 5446.59c-227.98,255.2 -445.87,494.37 -651.25,714.53 11.6,11.17 22.66,23.15 33.08,35.97l2069.79 2542.4 -1451.62 -3292.9zm1924.37 -9697.56c563.44,-896.64 1132.53,-1769.65 1688.81,-2583.65l-11899.53 -463.69 348.76 907.73 0.1 -0.04c28.04,66.62 90.69,133.48 169.24,194.41 112.87,87.55 251.15,154.84 378.01,195.05l8691.13 2755.57c206.6,-337.4 414.72,-673.16 623.48,-1005.38zm-4968.86 8859.46c156.73,-331.14 332.99,-690.14 526.18,-1072.04l-3901.35 -152.01 3123.99 990.48c119.17,37.6 208.29,125.87 251.18,233.57zm12436.44 -6120.56l194.66 441.57 1439.87 -632.45 -194.08 -441.83 -1440.45 632.71zm1496.99 3395.82l194.65 441.56 756.56 -332.32 -194.07 -441.81 -757.14 332.57zm-14883.61 -9812.8l482.52 18.8 31.14 -827.34 -482.55 -18.16 -31.11 826.7zm3708.33 144.5l482.52 18.8 59.21 -1573.12 -482.55 -18.17 -59.18 1572.49z"/></g><text x="0" y="60015" fill="#000000" font-size="5px" font-weight="bold" font-family="'Helvetica Neue', Helvetica, Arial-Unicode, Arial, Sans-serif">Created by Olena Panasovska</text><text x="0" y="60020" fill="#000000" font-size="5px" font-weight="bold" font-family="'Helvetica Neue', Helvetica, Arial-Unicode, Arial, Sans-serif">from the Noun Project</text></svg>